<?xml version="1.0" standalone="no"?><svg xmlns:xlink="http://www.w3.org/1999/xlink" xmlns="http://www.w3.org/2000/svg" viewBox="0 0 2000 1333.3333333333333" preserveAspectRatio="xMaxYMax slice"><g transform="scale(1.8859028760018859)"><rect x="0" y="0" width="1060.5" height="707" fill="#eff5f0"/><g transform="translate(28.28,28.28) scale(0.7070000000000001) rotate(0)"><path d="M10 5L5 0L0 5L5 10L0 15L5 20L10 15L15 20L20 15L15 10L20 5L15 0L10 5Z" fill="#cbd6d9"/></g><g transform="translate(98.98,28.28) scale(0.7070000000000001) rotate(0)"><path d="M13 0H20V7L7 20H0V13L13 0Z" fill="#dcdfda"/></g><g transform="translate(169.68,28.28) scale(0.7070000000000001) rotate(0)"><path d="M10 5L5 0L0 5L5 10L0 15L5 20L10 15L15 20L20 15L15 10L20 5L15 0L10 5Z" fill="#cbd6d9"/></g><g transform="translate(240.38,28.28) scale(0.7070000000000001) rotate(0)"><path d="M10 5L5 0L0 5L5 10L0 15L5 20L10 15L15 20L20 15L15 10L20 5L15 0L10 5Z" fill="#dcdfda"/></g><rect x="311.08000000000004" y="28.28" width="14.14" height="14.14" fill="#eff5f0"/><g transform="translate(311.08,28.28) scale(0.35350000000000004) rotate(0)"><path d="M10 5L5 0L0 5L5 10L0 15L5 20L10 15L15 20L20 15L15 10L20 5L15 0L10 5Z" fill="#dcdfda"/></g><g transform="translate(318.15,28.28) scale(0.35350000000000004) rotate(0)"><path d="M13 0H20V7L7 20H0V13L13 0Z" fill="#dcdfda"/></g><g transform="translate(311.08,35.35) scale(0.35350000000000004) rotate(0)"><path fill-rule="evenodd" clip-rule="evenodd" d="M10 20C15.5228 20 20 15.5228 20 10C20 4.47715 15.5228 0 10 0C4.47715 0 0 4.47715 0 10C0 15.5228 4.47715 20 10 20ZM10 17C13.866 17 17 13.866 17 10C17 6.13401 13.866 3 10 3C6.13401 3 3 6.13401 3 10C3 13.866 6.13401 17 10 17Z" fill="#cbd6d9"/></g><g transform="translate(318.15,35.35) scale(0.35350000000000004) rotate(0)"><path d="M10 5L5 0L0 5L5 10L0 15L5 20L10 15L15 20L20 15L15 10L20 5L15 0L10 5Z" fill="#cbd6d9"/></g><g transform="translate(381.78,28.28) scale(0.7070000000000001) rotate(0)"><path d="M19.9981 0.00193429L3.72652 -7.68637e-07L8.4784 4.75382L0 13.2345L6.76585 20L15.2462 11.5208L20 16.2746L19.9981 0.00193429Z" fill="#dcdfda"/></g><g transform="translate(452.48,28.28) scale(0.7070000000000001) rotate(0)"><path d="M19.9981 0.00193429L3.72652 -7.68637e-07L8.4784 4.75382L0 13.2345L6.76585 20L15.2462 11.5208L20 16.2746L19.9981 0.00193429Z" fill="#cbd6d9"/></g><g transform="translate(523.18,28.28) scale(0.7070000000000001) rotate(0)"><path d="M10 0L20 10L10 20L0 10L10 0Z" fill="#cbd6d9"/></g><circle cx="600.95" cy="35.35" r="7.07" fill="#cbd6d9"/><g transform="translate(664.58,28.28) scale(0.7070000000000001) rotate(0)"><path d="M10 0L20 10L10 20L0 10L10 0Z" fill="#dcdfda"/></g><rect x="735.28" y="28.28" width="14.14" height="14.14" fill="#eff5f0"/><g transform="translate(735.28,28.28) scale(0.35350000000000004) rotate(0)"><path d="M10 5L5 0L0 5L5 10L0 15L5 20L10 15L15 20L20 15L15 10L20 5L15 0L10 5Z" fill="#cbd6d9"/></g><g transform="translate(742.35,28.28) scale(0.35350000000000004) rotate(0)"><path d="M19.9981 0.00193429L3.72652 -7.68637e-07L8.4784 4.75382L0 13.2345L6.76585 20L15.2462 11.5208L20 16.2746L19.9981 0.00193429Z" fill="#dcdfda"/></g><g transform="translate(735.28,35.35) scale(0.35350000000000004) rotate(0)"><path d="M10 0L20 10L10 20L0 10L10 0Z" fill="#cbd6d9"/></g><g transform="translate(742.35,35.35) scale(0.35350000000000004) rotate(0)"><path d="M10 0L20 10L10 20L0 10L10 0Z" fill="#dcdfda"/></g><rect x="805.98" y="28.28" width="14.14" height="14.14" fill="#eff5f0"/><g transform="translate(805.98,28.28) scale(0.35350000000000004) rotate(0)"><path fill-rule="evenodd" clip-rule="evenodd" d="M10 20C15.5228 20 20 15.5228 20 10C20 4.47715 15.5228 0 10 0C4.47715 0 0 4.47715 0 10C0 15.5228 4.47715 20 10 20ZM10 17C13.866 17 17 13.866 17 10C17 6.13401 13.866 3 10 3C6.13401 3 3 6.13401 3 10C3 13.866 6.13401 17 10 17Z" fill="#cbd6d9"/></g><g transform="translate(813.05,28.28) scale(0.35350000000000004) rotate(0)"><path d="M10 5L5 0L0 5L5 10L0 15L5 20L10 15L15 20L20 15L15 10L20 5L15 0L10 5Z" fill="#cbd6d9"/></g><g transform="translate(805.98,35.35) scale(0.35350000000000004) rotate(0)"><path d="M19.9981 0.00193429L3.72652 -7.68637e-07L8.4784 4.75382L0 13.2345L6.76585 20L15.2462 11.5208L20 16.2746L19.9981 0.00193429Z" fill="#dcdfda"/></g><circle cx="816.5849999999999" cy="38.885000000000005" r="3.535" fill="#cbd6d9"/><g transform="translate(876.68,28.28) scale(0.7070000000000001) rotate(0)"><path d="M13 0H20V7L7 20H0V13L13 0Z" fill="#dcdfda"/></g><rect x="947.38" y="28.28" width="14.14" height="14.14" fill="#eff5f0"/><g transform="translate(947.38,28.28) scale(0.35350000000000004) rotate(0)"><path d="M10 5L5 0L0 5L5 10L0 15L5 20L10 15L15 20L20 15L15 10L20 5L15 0L10 5Z" fill="#dcdfda"/></g><circle cx="957.985" cy="31.815" r="3.535" fill="#cbd6d9"/><path d="M 947.38 35.35 A 7.07 7.07 0 0 1  954.45 42.42 L 947.38 35.35 A 7.07 7.07 0 0 0 954.45 42.42" fill="#cbd6d9"/><g transform="translate(954.45,35.35) scale(0.35350000000000004) rotate(0)"><path fill-rule="evenodd" clip-rule="evenodd" d="M10 20C15.5228 20 20 15.5228 20 10C20 4.47715 15.5228 0 10 0C4.47715 0 0 4.47715 0 10C0 15.5228 4.47715 20 10 20ZM10 17C13.866 17 17 13.866 17 10C17 6.13401 13.866 3 10 3C6.13401 3 3 6.13401 3 10C3 13.866 6.13401 17 10 17Z" fill="#cbd6d9"/></g><rect x="1018.08" y="28.28" width="14.14" height="14.14" fill="#eff5f0"/><g transform="translate(1018.08,28.28) scale(0.35350000000000004) rotate(0)"><path d="M10 5L5 0L0 5L5 10L0 15L5 20L10 15L15 20L20 15L15 10L20 5L15 0L10 5Z" fill="#cbd6d9"/></g><g transform="translate(1025.15,28.28) scale(0.35350000000000004) rotate(0)"><path d="M13 0H20V7L7 20H0V13L13 0Z" fill="#dcdfda"/></g><g transform="translate(1018.08,35.35) scale(0.35350000000000004) rotate(0)"><path d="M13 0H20V7L7 20H0V13L13 0Z" fill="#dcdfda"/></g><g transform="translate(1025.15,35.35) scale(0.35350000000000004) rotate(0)"><path d="M19.9981 0.00193429L3.72652 -7.68637e-07L8.4784 4.75382L0 13.2345L6.76585 20L15.2462 11.5208L20 16.2746L19.9981 0.00193429Z" fill="#cbd6d9"/></g><g transform="translate(24.89,95.59) scale(1.0465) rotate(0)"><path d="M10 5L5 0L0 5L5 10L0 15L5 20L10 15L15 20L20 15L15 10L20 5L15 0L10 5Z" fill="#cbd6d9"/></g><g transform="translate(95.59,95.59) scale(1.0465) rotate(0)"><path fill-rule="evenodd" clip-rule="evenodd" d="M10 20C15.5228 20 20 15.5228 20 10C20 4.47715 15.5228 0 10 0C4.47715 0 0 4.47715 0 10C0 15.5228 4.47715 20 10 20ZM10 17C13.866 17 17 13.866 17 10C17 6.13401 13.866 3 10 3C6.13401 3 3 6.13401 3 10C3 13.866 6.13401 17 10 17Z" fill="#dcdfda"/></g><g transform="translate(166.29,95.59) scale(1.0465) rotate(0)"><path d="M10 0L20 10L10 20L0 10L10 0Z" fill="#dcdfda"/></g><path d="M 236.99 95.59 A 20.93 20.93 0 0 1  257.92 116.52000000000001 L 236.99 95.59 A 20.93 20.93 0 0 0 257.92 116.52000000000001" fill="#dcdfda"/><g transform="translate(307.69,95.59) scale(1.0465) rotate(0)"><path d="M19.9981 0.00193429L3.72652 -7.68637e-07L8.4784 4.75382L0 13.2345L6.76585 20L15.2462 11.5208L20 16.2746L19.9981 0.00193429Z" fill="#dcdfda"/></g><rect x="378.3864" y="95.5864" width="20.9272" height="20.9272" fill="#eff5f0"/><g transform="translate(378.39,95.59) scale(0.523) rotate(0)"><path fill-rule="evenodd" clip-rule="evenodd" d="M10 20C15.5228 20 20 15.5228 20 10C20 4.47715 15.5228 0 10 0C4.47715 0 0 4.47715 0 10C0 15.5228 4.47715 20 10 20ZM10 17C13.866 17 17 13.866 17 10C17 6.13401 13.866 3 10 3C6.13401 3 3 6.13401 3 10C3 13.866 6.13401 17 10 17Z" fill="#cbd6d9"/></g><g transform="translate(388.85,95.59) scale(0.523) rotate(0)"><path d="M13 0H20V7L7 20H0V13L13 0Z" fill="#cbd6d9"/></g><g transform="translate(378.39,106.05) scale(0.523) rotate(0)"><path d="M10 0L20 10L10 20L0 10L10 0Z" fill="#cbd6d9"/></g><g transform="translate(388.85,106.05) scale(0.523) rotate(0)"><path d="M19.9981 0.00193429L3.72652 -7.68637e-07L8.4784 4.75382L0 13.2345L6.76585 20L15.2462 11.5208L20 16.2746L19.9981 0.00193429Z" fill="#cbd6d9"/></g><rect x="449.0864" y="95.5864" width="20.9272" height="20.9272" fill="#eff5f0"/><g transform="translate(449.09,95.59) scale(0.523) rotate(0)"><path d="M13 0H20V7L7 20H0V13L13 0Z" fill="#cbd6d9"/></g><circle cx="464.78000000000003" cy="100.82000000000001" r="5.23" fill="#cbd6d9"/><g transform="translate(449.09,106.05) scale(0.523) rotate(0)"><path d="M10 5L5 0L0 5L5 10L0 15L5 20L10 15L15 20L20 15L15 10L20 5L15 0L10 5Z" fill="#dcdfda"/></g><g transform="translate(459.55,106.05) scale(0.523) rotate(0)"><path d="M10 5L5 0L0 5L5 10L0 15L5 20L10 15L15 20L20 15L15 10L20 5L15 0L10 5Z" fill="#cbd6d9"/></g><g transform="translate(519.79,95.59) scale(1.0465) rotate(0)"><path d="M13 0H20V7L7 20H0V13L13 0Z" fill="#dcdfda"/></g><path d="M 590.49 95.59 A 20.93 20.93 0 0 1  611.42 116.52000000000001 L 590.49 95.59 A 20.93 20.93 0 0 0 611.42 116.52000000000001" fill="#cbd6d9"/><rect x="661.1864" y="95.5864" width="20.9272" height="20.9272" fill="#eff5f0"/><g transform="translate(661.19,95.59) scale(0.523) rotate(0)"><path d="M19.9981 0.00193429L3.72652 -7.68637e-07L8.4784 4.75382L0 13.2345L6.76585 20L15.2462 11.5208L20 16.2746L19.9981 0.00193429Z" fill="#cbd6d9"/></g><g transform="translate(671.65,95.59) scale(0.523) rotate(0)"><path d="M13 0H20V7L7 20H0V13L13 0Z" fill="#cbd6d9"/></g><circle cx="666.4200000000001" cy="111.28" r="5.23" fill="#cbd6d9"/><g transform="translate(671.65,106.05) scale(0.523) rotate(0)"><path d="M13 0H20V7L7 20H0V13L13 0Z" fill="#cbd6d9"/></g><g transform="translate(731.89,95.59) scale(1.0465) rotate(0)"><path d="M19.9981 0.00193429L3.72652 -7.68637e-07L8.4784 4.75382L0 13.2345L6.76585 20L15.2462 11.5208L20 16.2746L19.9981 0.00193429Z" fill="#dcdfda"/></g><rect x="802.5864" y="95.5864" width="20.9272" height="20.9272" fill="#eff5f0"/><g transform="translate(802.59,95.59) scale(0.523) rotate(0)"><path d="M10 5L5 0L0 5L5 10L0 15L5 20L10 15L15 20L20 15L15 10L20 5L15 0L10 5Z" fill="#cbd6d9"/></g><g transform="translate(813.05,95.59) scale(0.523) rotate(0)"><path d="M10 5L5 0L0 5L5 10L0 15L5 20L10 15L15 20L20 15L15 10L20 5L15 0L10 5Z" fill="#cbd6d9"/></g><g transform="translate(802.59,106.05) scale(0.523) rotate(0)"><path fill-rule="evenodd" clip-rule="evenodd" d="M10 20C15.5228 20 20 15.5228 20 10C20 4.47715 15.5228 0 10 0C4.47715 0 0 4.47715 0 10C0 15.5228 4.47715 20 10 20ZM10 17C13.866 17 17 13.866 17 10C17 6.13401 13.866 3 10 3C6.13401 3 3 6.13401 3 10C3 13.866 6.13401 17 10 17Z" fill="#dcdfda"/></g><g transform="translate(813.05,106.05) scale(0.523) rotate(0)"><path d="M10 5L5 0L0 5L5 10L0 15L5 20L10 15L15 20L20 15L15 10L20 5L15 0L10 5Z" fill="#dcdfda"/></g><path d="M 873.29 95.59 A 20.93 20.93 0 0 1  894.2199999999999 116.52000000000001 L 873.29 95.59 A 20.93 20.93 0 0 0 894.2199999999999 116.52000000000001" fill="#dcdfda"/><rect x="943.9864" y="95.5864" width="20.9272" height="20.9272" fill="#eff5f0"/><g transform="translate(943.99,95.59) scale(0.523) rotate(0)"><path d="M10 0L20 10L10 20L0 10L10 0Z" fill="#cbd6d9"/></g><circle cx="959.6800000000001" cy="100.82000000000001" r="5.23" fill="#dcdfda"/><path d="M 943.99 116.50999999999999 A 10.46 10.46 0 0 1  954.45 106.05 L 943.99 116.50999999999999 A 10.46 10.46 0 0 0 954.45 106.05" fill="#cbd6d9"/><path d="M 954.45 106.05 A 10.46 10.46 0 0 1  964.9100000000001 116.50999999999999 L 954.45 106.05 A 10.46 10.46 0 0 0 964.9100000000001 116.50999999999999" fill="#cbd6d9"/><g transform="translate(1014.69,95.59) scale(1.0465) rotate(0)"><path fill-rule="evenodd" clip-rule="evenodd" d="M10 20C15.5228 20 20 15.5228 20 10C20 4.47715 15.5228 0 10 0C4.47715 0 0 4.47715 0 10C0 15.5228 4.47715 20 10 20ZM10 17C13.866 17 17 13.866 17 10C17 6.13401 13.866 3 10 3C6.13401 3 3 6.13401 3 10C3 13.866 6.13401 17 10 17Z" fill="#dcdfda"/></g><g transform="translate(21.49,162.89) scale(1.3855) rotate(0)"><path d="M19.9981 0.00193429L3.72652 -7.68637e-07L8.4784 4.75382L0 13.2345L6.76585 20L15.2462 11.5208L20 16.2746L19.9981 0.00193429Z" fill="#dcdfda"/></g><g transform="translate(92.19,162.89) scale(1.3855) rotate(0)"><path d="M10 0L20 10L10 20L0 10L10 0Z" fill="#dcdfda"/></g><rect x="162.89280000000002" y="162.89280000000002" width="27.714399999999998" height="27.714399999999998" fill="#eff5f0"/><g transform="translate(162.89,162.89) scale(0.693) rotate(0)"><path d="M10 5L5 0L0 5L5 10L0 15L5 20L10 15L15 20L20 15L15 10L20 5L15 0L10 5Z" fill="#dcdfda"/></g><g transform="translate(176.75,162.89) scale(0.693) rotate(0)"><path d="M10 5L5 0L0 5L5 10L0 15L5 20L10 15L15 20L20 15L15 10L20 5L15 0L10 5Z" fill="#cbd6d9"/></g><g transform="translate(162.89,176.75) scale(0.693) rotate(0)"><path d="M13 0H20V7L7 20H0V13L13 0Z" fill="#cbd6d9"/></g><circle cx="183.68" cy="183.68" r="6.93" fill="#cbd6d9"/><rect x="233.5928" y="162.89280000000002" width="27.714399999999998" height="27.714399999999998" fill="#eff5f0"/><path d="M 233.59 162.89 A 13.86 13.86 0 0 1  247.45 176.75 L 233.59 162.89 A 13.86 13.86 0 0 0 247.45 176.75" fill="#dcdfda"/><g transform="translate(247.45,162.89) scale(0.693) rotate(0)"><path d="M13 0H20V7L7 20H0V13L13 0Z" fill="#dcdfda"/></g><g transform="translate(233.59,176.75) scale(0.693) rotate(0)"><path d="M19.9981 0.00193429L3.72652 -7.68637e-07L8.4784 4.75382L0 13.2345L6.76585 20L15.2462 11.5208L20 16.2746L19.9981 0.00193429Z" fill="#dcdfda"/></g><path d="M 247.45 176.75 A 13.86 13.86 0 0 1  261.31 190.61 L 247.45 176.75 A 13.86 13.86 0 0 0 261.31 190.61" fill="#cbd6d9"/><g transform="translate(304.29,162.89) scale(1.3855) rotate(0)"><path d="M13 0H20V7L7 20H0V13L13 0Z" fill="#dcdfda"/></g><g transform="translate(374.99,162.89) scale(1.3855) rotate(0)"><path d="M13 0H20V7L7 20H0V13L13 0Z" fill="#cbd6d9"/></g><g transform="translate(445.69,162.89) scale(1.3855) rotate(0)"><path fill-rule="evenodd" clip-rule="evenodd" d="M10 20C15.5228 20 20 15.5228 20 10C20 4.47715 15.5228 0 10 0C4.47715 0 0 4.47715 0 10C0 15.5228 4.47715 20 10 20ZM10 17C13.866 17 17 13.866 17 10C17 6.13401 13.866 3 10 3C6.13401 3 3 6.13401 3 10C3 13.866 6.13401 17 10 17Z" fill="#cbd6d9"/></g><circle cx="530.245" cy="176.74499999999998" r="13.855" fill="#dcdfda"/><g transform="translate(587.09,162.89) scale(1.3855) rotate(0)"><path d="M10 5L5 0L0 5L5 10L0 15L5 20L10 15L15 20L20 15L15 10L20 5L15 0L10 5Z" fill="#cbd6d9"/></g><rect x="657.7928" y="162.89280000000002" width="27.714399999999998" height="27.714399999999998" fill="#eff5f0"/><g transform="translate(657.79,162.89) scale(0.693) rotate(0)"><path d="M13 0H20V7L7 20H0V13L13 0Z" fill="#dcdfda"/></g><g transform="translate(671.65,162.89) scale(0.693) rotate(0)"><path d="M13 0H20V7L7 20H0V13L13 0Z" fill="#dcdfda"/></g><g transform="translate(657.79,176.75) scale(0.693) rotate(0)"><path d="M13 0H20V7L7 20H0V13L13 0Z" fill="#dcdfda"/></g><circle cx="678.5799999999999" cy="183.68" r="6.93" fill="#dcdfda"/><rect x="728.4928" y="162.89280000000002" width="27.714399999999998" height="27.714399999999998" fill="#eff5f0"/><g transform="translate(728.49,162.89) scale(0.693) rotate(0)"><path d="M19.9981 0.00193429L3.72652 -7.68637e-07L8.4784 4.75382L0 13.2345L6.76585 20L15.2462 11.5208L20 16.2746L19.9981 0.00193429Z" fill="#dcdfda"/></g><g transform="translate(742.35,162.89) scale(0.693) rotate(0)"><path fill-rule="evenodd" clip-rule="evenodd" d="M10 20C15.5228 20 20 15.5228 20 10C20 4.47715 15.5228 0 10 0C4.47715 0 0 4.47715 0 10C0 15.5228 4.47715 20 10 20ZM10 17C13.866 17 17 13.866 17 10C17 6.13401 13.866 3 10 3C6.13401 3 3 6.13401 3 10C3 13.866 6.13401 17 10 17Z" fill="#dcdfda"/></g><g transform="translate(728.49,176.75) scale(0.693) rotate(0)"><path d="M19.9981 0.00193429L3.72652 -7.68637e-07L8.4784 4.75382L0 13.2345L6.76585 20L15.2462 11.5208L20 16.2746L19.9981 0.00193429Z" fill="#cbd6d9"/></g><g transform="translate(742.35,176.75) scale(0.693) rotate(0)"><path d="M10 5L5 0L0 5L5 10L0 15L5 20L10 15L15 20L20 15L15 10L20 5L15 0L10 5Z" fill="#cbd6d9"/></g><path d="M 799.19 162.89 A 27.71 27.71 0 0 1  826.9000000000001 190.6 L 799.19 162.89 A 27.71 27.71 0 0 0 826.9000000000001 190.6" fill="#cbd6d9"/><g transform="translate(869.89,162.89) scale(1.3855) rotate(0)"><path fill-rule="evenodd" clip-rule="evenodd" d="M10 20C15.5228 20 20 15.5228 20 10C20 4.47715 15.5228 0 10 0C4.47715 0 0 4.47715 0 10C0 15.5228 4.47715 20 10 20ZM10 17C13.866 17 17 13.866 17 10C17 6.13401 13.866 3 10 3C6.13401 3 3 6.13401 3 10C3 13.866 6.13401 17 10 17Z" fill="#cbd6d9"/></g><g transform="translate(940.59,162.89) scale(1.3855) rotate(0)"><path d="M13 0H20V7L7 20H0V13L13 0Z" fill="#cbd6d9"/></g><rect x="1011.2928" y="162.89280000000002" width="27.714399999999998" height="27.714399999999998" fill="#eff5f0"/><g transform="translate(1011.29,162.89) scale(0.693) rotate(0)"><path d="M10 0L20 10L10 20L0 10L10 0Z" fill="#cbd6d9"/></g><g transform="translate(1025.15,162.89) scale(0.693) rotate(0)"><path d="M13 0H20V7L7 20H0V13L13 0Z" fill="#dcdfda"/></g><g transform="translate(1011.29,176.75) scale(0.693) rotate(0)"><path d="M19.9981 0.00193429L3.72652 -7.68637e-07L8.4784 4.75382L0 13.2345L6.76585 20L15.2462 11.5208L20 16.2746L19.9981 0.00193429Z" fill="#cbd6d9"/></g><g transform="translate(1025.15,176.75) scale(0.693) rotate(0)"><path d="M13 0H20V7L7 20H0V13L13 0Z" fill="#dcdfda"/></g><g transform="translate(18.1,230.2) scale(1.725) rotate(0)"><path d="M13 0H20V7L7 20H0V13L13 0Z" fill="#cbd6d9"/></g><rect x="88.79920000000001" y="230.19920000000002" width="34.501599999999996" height="34.501599999999996" fill="#eff5f0"/><g transform="translate(88.8,230.2) scale(0.8625) rotate(0)"><path d="M10 5L5 0L0 5L5 10L0 15L5 20L10 15L15 20L20 15L15 10L20 5L15 0L10 5Z" fill="#cbd6d9"/></g><circle cx="114.675" cy="238.825" r="8.625" fill="#cbd6d9"/><g transform="translate(88.8,247.45) scale(0.8625) rotate(0)"><path d="M13 0H20V7L7 20H0V13L13 0Z" fill="#dcdfda"/></g><g transform="translate(106.05,247.45) scale(0.8625) rotate(0)"><path d="M10 0L20 10L10 20L0 10L10 0Z" fill="#cbd6d9"/></g><g transform="translate(159.5,230.2) scale(1.725) rotate(0)"><path d="M19.9981 0.00193429L3.72652 -7.68637e-07L8.4784 4.75382L0 13.2345L6.76585 20L15.2462 11.5208L20 16.2746L19.9981 0.00193429Z" fill="#dcdfda"/></g><g transform="translate(230.2,230.2) scale(1.725) rotate(0)"><path fill-rule="evenodd" clip-rule="evenodd" d="M10 20C15.5228 20 20 15.5228 20 10C20 4.47715 15.5228 0 10 0C4.47715 0 0 4.47715 0 10C0 15.5228 4.47715 20 10 20ZM10 17C13.866 17 17 13.866 17 10C17 6.13401 13.866 3 10 3C6.13401 3 3 6.13401 3 10C3 13.866 6.13401 17 10 17Z" fill="#dcdfda"/></g><circle cx="318.15" cy="247.45" r="17.25" fill="#dcdfda"/><g transform="translate(371.6,230.2) scale(1.725) rotate(0)"><path d="M10 0L20 10L10 20L0 10L10 0Z" fill="#dcdfda"/></g><g transform="translate(442.3,230.2) scale(1.725) rotate(0)"><path d="M10 0L20 10L10 20L0 10L10 0Z" fill="#cbd6d9"/></g><g transform="translate(513,230.2) scale(1.725) rotate(0)"><path d="M10 0L20 10L10 20L0 10L10 0Z" fill="#cbd6d9"/></g><rect x="583.6992" y="230.19920000000002" width="34.501599999999996" height="34.501599999999996" fill="#eff5f0"/><g transform="translate(583.7,230.2) scale(0.8625) rotate(0)"><path d="M19.9981 0.00193429L3.72652 -7.68637e-07L8.4784 4.75382L0 13.2345L6.76585 20L15.2462 11.5208L20 16.2746L19.9981 0.00193429Z" fill="#cbd6d9"/></g><g transform="translate(600.95,230.2) scale(0.8625) rotate(0)"><path d="M19.9981 0.00193429L3.72652 -7.68637e-07L8.4784 4.75382L0 13.2345L6.76585 20L15.2462 11.5208L20 16.2746L19.9981 0.00193429Z" fill="#cbd6d9"/></g><g transform="translate(583.7,247.45) scale(0.8625) rotate(0)"><path d="M10 5L5 0L0 5L5 10L0 15L5 20L10 15L15 20L20 15L15 10L20 5L15 0L10 5Z" fill="#dcdfda"/></g><circle cx="609.575" cy="256.075" r="8.625" fill="#dcdfda"/><g transform="translate(654.4,230.2) scale(1.725) rotate(0)"><path fill-rule="evenodd" clip-rule="evenodd" d="M10 20C15.5228 20 20 15.5228 20 10C20 4.47715 15.5228 0 10 0C4.47715 0 0 4.47715 0 10C0 15.5228 4.47715 20 10 20ZM10 17C13.866 17 17 13.866 17 10C17 6.13401 13.866 3 10 3C6.13401 3 3 6.13401 3 10C3 13.866 6.13401 17 10 17Z" fill="#cbd6d9"/></g><g transform="translate(725.1,230.2) scale(1.725) rotate(0)"><path d="M10 5L5 0L0 5L5 10L0 15L5 20L10 15L15 20L20 15L15 10L20 5L15 0L10 5Z" fill="#dcdfda"/></g><g transform="translate(795.8,230.2) scale(1.725) rotate(0)"><path d="M13 0H20V7L7 20H0V13L13 0Z" fill="#cbd6d9"/></g><g transform="translate(866.5,230.2) scale(1.725) rotate(0)"><path d="M10 5L5 0L0 5L5 10L0 15L5 20L10 15L15 20L20 15L15 10L20 5L15 0L10 5Z" fill="#cbd6d9"/></g><rect x="937.1992" y="230.19920000000002" width="34.501599999999996" height="34.501599999999996" fill="#eff5f0"/><circle cx="945.825" cy="238.825" r="8.625" fill="#dcdfda"/><g transform="translate(954.45,230.2) scale(0.8625) rotate(0)"><path d="M19.9981 0.00193429L3.72652 -7.68637e-07L8.4784 4.75382L0 13.2345L6.76585 20L15.2462 11.5208L20 16.2746L19.9981 0.00193429Z" fill="#cbd6d9"/></g><g transform="translate(937.2,247.45) scale(0.8625) rotate(0)"><path fill-rule="evenodd" clip-rule="evenodd" d="M10 20C15.5228 20 20 15.5228 20 10C20 4.47715 15.5228 0 10 0C4.47715 0 0 4.47715 0 10C0 15.5228 4.47715 20 10 20ZM10 17C13.866 17 17 13.866 17 10C17 6.13401 13.866 3 10 3C6.13401 3 3 6.13401 3 10C3 13.866 6.13401 17 10 17Z" fill="#dcdfda"/></g><g transform="translate(954.45,247.45) scale(0.8625) rotate(0)"><path d="M10 5L5 0L0 5L5 10L0 15L5 20L10 15L15 20L20 15L15 10L20 5L15 0L10 5Z" fill="#cbd6d9"/></g><circle cx="1025.15" cy="247.45" r="17.25" fill="#cbd6d9"/><g transform="translate(14.71,297.51) scale(2.0645) rotate(0)"><path d="M10 5L5 0L0 5L5 10L0 15L5 20L10 15L15 20L20 15L15 10L20 5L15 0L10 5Z" fill="#dcdfda"/></g><rect x="85.4056" y="297.5056" width="41.288799999999995" height="41.288799999999995" fill="#eff5f0"/><g transform="translate(85.41,297.51) scale(1.032) rotate(0)"><path fill-rule="evenodd" clip-rule="evenodd" d="M10 20C15.5228 20 20 15.5228 20 10C20 4.47715 15.5228 0 10 0C4.47715 0 0 4.47715 0 10C0 15.5228 4.47715 20 10 20ZM10 17C13.866 17 17 13.866 17 10C17 6.13401 13.866 3 10 3C6.13401 3 3 6.13401 3 10C3 13.866 6.13401 17 10 17Z" fill="#cbd6d9"/></g><g transform="translate(106.05,297.51) scale(1.032) rotate(0)"><path fill-rule="evenodd" clip-rule="evenodd" d="M10 20C15.5228 20 20 15.5228 20 10C20 4.47715 15.5228 0 10 0C4.47715 0 0 4.47715 0 10C0 15.5228 4.47715 20 10 20ZM10 17C13.866 17 17 13.866 17 10C17 6.13401 13.866 3 10 3C6.13401 3 3 6.13401 3 10C3 13.866 6.13401 17 10 17Z" fill="#cbd6d9"/></g><g transform="translate(85.41,318.15) scale(1.032) rotate(0)"><path fill-rule="evenodd" clip-rule="evenodd" d="M10 20C15.5228 20 20 15.5228 20 10C20 4.47715 15.5228 0 10 0C4.47715 0 0 4.47715 0 10C0 15.5228 4.47715 20 10 20ZM10 17C13.866 17 17 13.866 17 10C17 6.13401 13.866 3 10 3C6.13401 3 3 6.13401 3 10C3 13.866 6.13401 17 10 17Z" fill="#dcdfda"/></g><g transform="translate(106.05,318.15) scale(1.032) rotate(0)"><path d="M13 0H20V7L7 20H0V13L13 0Z" fill="#dcdfda"/></g><g transform="translate(156.11,297.51) scale(2.0645) rotate(0)"><path d="M19.9981 0.00193429L3.72652 -7.68637e-07L8.4784 4.75382L0 13.2345L6.76585 20L15.2462 11.5208L20 16.2746L19.9981 0.00193429Z" fill="#dcdfda"/></g><rect x="226.80560000000003" y="297.5056" width="41.288799999999995" height="41.288799999999995" fill="#eff5f0"/><g transform="translate(226.81,297.51) scale(1.032) rotate(0)"><path d="M19.9981 0.00193429L3.72652 -7.68637e-07L8.4784 4.75382L0 13.2345L6.76585 20L15.2462 11.5208L20 16.2746L19.9981 0.00193429Z" fill="#dcdfda"/></g><path d="M 247.45 318.15 A 20.64 20.64 0 0 1  268.09 297.51 L 247.45 318.15 A 20.64 20.64 0 0 0 268.09 297.51" fill="#dcdfda"/><g transform="translate(226.81,318.15) scale(1.032) rotate(0)"><path fill-rule="evenodd" clip-rule="evenodd" d="M10 20C15.5228 20 20 15.5228 20 10C20 4.47715 15.5228 0 10 0C4.47715 0 0 4.47715 0 10C0 15.5228 4.47715 20 10 20ZM10 17C13.866 17 17 13.866 17 10C17 6.13401 13.866 3 10 3C6.13401 3 3 6.13401 3 10C3 13.866 6.13401 17 10 17Z" fill="#cbd6d9"/></g><g transform="translate(247.45,318.15) scale(1.032) rotate(0)"><path fill-rule="evenodd" clip-rule="evenodd" d="M10 20C15.5228 20 20 15.5228 20 10C20 4.47715 15.5228 0 10 0C4.47715 0 0 4.47715 0 10C0 15.5228 4.47715 20 10 20ZM10 17C13.866 17 17 13.866 17 10C17 6.13401 13.866 3 10 3C6.13401 3 3 6.13401 3 10C3 13.866 6.13401 17 10 17Z" fill="#cbd6d9"/></g><rect x="297.5056" y="297.5056" width="41.288799999999995" height="41.288799999999995" fill="#eff5f0"/><g transform="translate(297.51,297.51) scale(1.032) rotate(0)"><path fill-rule="evenodd" clip-rule="evenodd" d="M10 20C15.5228 20 20 15.5228 20 10C20 4.47715 15.5228 0 10 0C4.47715 0 0 4.47715 0 10C0 15.5228 4.47715 20 10 20ZM10 17C13.866 17 17 13.866 17 10C17 6.13401 13.866 3 10 3C6.13401 3 3 6.13401 3 10C3 13.866 6.13401 17 10 17Z" fill="#dcdfda"/></g><path d="M 318.15 297.51 A 20.64 20.64 0 0 1  338.78999999999996 318.15 L 318.15 297.51 A 20.64 20.64 0 0 0 338.78999999999996 318.15" fill="#cbd6d9"/><g transform="translate(297.51,318.15) scale(1.032) rotate(0)"><path d="M13 0H20V7L7 20H0V13L13 0Z" fill="#dcdfda"/></g><g transform="translate(318.15,318.15) scale(1.032) rotate(0)"><path d="M10 0L20 10L10 20L0 10L10 0Z" fill="#cbd6d9"/></g><g transform="translate(368.21,297.51) scale(2.0645) rotate(0)"><path d="M19.9981 0.00193429L3.72652 -7.68637e-07L8.4784 4.75382L0 13.2345L6.76585 20L15.2462 11.5208L20 16.2746L19.9981 0.00193429Z" fill="#dcdfda"/></g><path d="M 438.91 338.8 A 41.29 41.29 0 0 1  480.20000000000005 297.51 L 438.91 338.8 A 41.29 41.29 0 0 0 480.20000000000005 297.51" fill="#cbd6d9"/><g transform="translate(509.61,297.51) scale(2.0645) rotate(0)"><path d="M19.9981 0.00193429L3.72652 -7.68637e-07L8.4784 4.75382L0 13.2345L6.76585 20L15.2462 11.5208L20 16.2746L19.9981 0.00193429Z" fill="#dcdfda"/></g><rect x="580.3056" y="297.5056" width="41.288799999999995" height="41.288799999999995" fill="#eff5f0"/><g transform="translate(580.31,297.51) scale(1.032) rotate(0)"><path d="M19.9981 0.00193429L3.72652 -7.68637e-07L8.4784 4.75382L0 13.2345L6.76585 20L15.2462 11.5208L20 16.2746L19.9981 0.00193429Z" fill="#dcdfda"/></g><circle cx="611.2700000000001" cy="307.83" r="10.32" fill="#dcdfda"/><g transform="translate(580.31,318.15) scale(1.032) rotate(0)"><path fill-rule="evenodd" clip-rule="evenodd" d="M10 20C15.5228 20 20 15.5228 20 10C20 4.47715 15.5228 0 10 0C4.47715 0 0 4.47715 0 10C0 15.5228 4.47715 20 10 20ZM10 17C13.866 17 17 13.866 17 10C17 6.13401 13.866 3 10 3C6.13401 3 3 6.13401 3 10C3 13.866 6.13401 17 10 17Z" fill="#cbd6d9"/></g><g transform="translate(600.95,318.15) scale(1.032) rotate(0)"><path d="M19.9981 0.00193429L3.72652 -7.68637e-07L8.4784 4.75382L0 13.2345L6.76585 20L15.2462 11.5208L20 16.2746L19.9981 0.00193429Z" fill="#dcdfda"/></g><rect x="651.0056000000001" y="297.5056" width="41.288799999999995" height="41.288799999999995" fill="#eff5f0"/><path d="M 651.01 297.51 A 20.64 20.64 0 0 1  671.65 318.15 L 651.01 297.51 A 20.64 20.64 0 0 0 671.65 318.15" fill="#dcdfda"/><g transform="translate(671.65,297.51) scale(1.032) rotate(0)"><path d="M10 5L5 0L0 5L5 10L0 15L5 20L10 15L15 20L20 15L15 10L20 5L15 0L10 5Z" fill="#cbd6d9"/></g><g transform="translate(651.01,318.15) scale(1.032) rotate(0)"><path d="M13 0H20V7L7 20H0V13L13 0Z" fill="#dcdfda"/></g><circle cx="681.97" cy="328.46999999999997" r="10.32" fill="#cbd6d9"/><rect x="721.7056" y="297.5056" width="41.288799999999995" height="41.288799999999995" fill="#eff5f0"/><g transform="translate(721.71,297.51) scale(1.032) rotate(0)"><path d="M13 0H20V7L7 20H0V13L13 0Z" fill="#cbd6d9"/></g><path d="M 742.35 297.51 A 20.64 20.64 0 0 1  762.99 318.15 L 742.35 297.51 A 20.64 20.64 0 0 0 762.99 318.15" fill="#cbd6d9"/><g transform="translate(721.71,318.15) scale(1.032) rotate(0)"><path fill-rule="evenodd" clip-rule="evenodd" d="M10 20C15.5228 20 20 15.5228 20 10C20 4.47715 15.5228 0 10 0C4.47715 0 0 4.47715 0 10C0 15.5228 4.47715 20 10 20ZM10 17C13.866 17 17 13.866 17 10C17 6.13401 13.866 3 10 3C6.13401 3 3 6.13401 3 10C3 13.866 6.13401 17 10 17Z" fill="#dcdfda"/></g><g transform="translate(742.35,318.15) scale(1.032) rotate(0)"><path fill-rule="evenodd" clip-rule="evenodd" d="M10 20C15.5228 20 20 15.5228 20 10C20 4.47715 15.5228 0 10 0C4.47715 0 0 4.47715 0 10C0 15.5228 4.47715 20 10 20ZM10 17C13.866 17 17 13.866 17 10C17 6.13401 13.866 3 10 3C6.13401 3 3 6.13401 3 10C3 13.866 6.13401 17 10 17Z" fill="#cbd6d9"/></g><g transform="translate(792.41,297.51) scale(2.0645) rotate(0)"><path d="M13 0H20V7L7 20H0V13L13 0Z" fill="#dcdfda"/></g><g transform="translate(863.11,297.51) scale(2.0645) rotate(0)"><path d="M19.9981 0.00193429L3.72652 -7.68637e-07L8.4784 4.75382L0 13.2345L6.76585 20L15.2462 11.5208L20 16.2746L19.9981 0.00193429Z" fill="#dcdfda"/></g><g transform="translate(933.81,297.51) scale(2.0645) rotate(0)"><path d="M10 5L5 0L0 5L5 10L0 15L5 20L10 15L15 20L20 15L15 10L20 5L15 0L10 5Z" fill="#dcdfda"/></g><path d="M 1004.51 297.51 A 41.29 41.29 0 0 1  1045.8 338.8 L 1004.51 297.51 A 41.29 41.29 0 0 0 1045.8 338.8" fill="#dcdfda"/><rect x="11.312000000000001" y="364.812" width="48.076" height="48.076" fill="#eff5f0"/><g transform="translate(11.31,364.81) scale(1.202) rotate(0)"><path d="M10 0L20 10L10 20L0 10L10 0Z" fill="#cbd6d9"/></g><g transform="translate(35.35,364.81) scale(1.202) rotate(0)"><path d="M10 0L20 10L10 20L0 10L10 0Z" fill="#cbd6d9"/></g><path d="M 11.31 412.89000000000004 A 24.04 24.04 0 0 1  35.35 388.85 L 11.31 412.89000000000004 A 24.04 24.04 0 0 0 35.35 388.85" fill="#dcdfda"/><g transform="translate(35.35,388.85) scale(1.202) rotate(0)"><path d="M19.9981 0.00193429L3.72652 -7.68637e-07L8.4784 4.75382L0 13.2345L6.76585 20L15.2462 11.5208L20 16.2746L19.9981 0.00193429Z" fill="#cbd6d9"/></g><g transform="translate(82.01,364.81) scale(2.404) rotate(0)"><path fill-rule="evenodd" clip-rule="evenodd" d="M10 20C15.5228 20 20 15.5228 20 10C20 4.47715 15.5228 0 10 0C4.47715 0 0 4.47715 0 10C0 15.5228 4.47715 20 10 20ZM10 17C13.866 17 17 13.866 17 10C17 6.13401 13.866 3 10 3C6.13401 3 3 6.13401 3 10C3 13.866 6.13401 17 10 17Z" fill="#cbd6d9"/></g><g transform="translate(152.71,364.81) scale(2.404) rotate(0)"><path d="M10 0L20 10L10 20L0 10L10 0Z" fill="#cbd6d9"/></g><rect x="223.41200000000003" y="364.812" width="48.076" height="48.076" fill="#eff5f0"/><g transform="translate(223.41,364.81) scale(1.202) rotate(0)"><path fill-rule="evenodd" clip-rule="evenodd" d="M10 20C15.5228 20 20 15.5228 20 10C20 4.47715 15.5228 0 10 0C4.47715 0 0 4.47715 0 10C0 15.5228 4.47715 20 10 20ZM10 17C13.866 17 17 13.866 17 10C17 6.13401 13.866 3 10 3C6.13401 3 3 6.13401 3 10C3 13.866 6.13401 17 10 17Z" fill="#cbd6d9"/></g><g transform="translate(247.45,364.81) scale(1.202) rotate(0)"><path d="M10 0L20 10L10 20L0 10L10 0Z" fill="#cbd6d9"/></g><g transform="translate(223.41,388.85) scale(1.202) rotate(0)"><path d="M13 0H20V7L7 20H0V13L13 0Z" fill="#dcdfda"/></g><g transform="translate(247.45,388.85) scale(1.202) rotate(0)"><path d="M10 0L20 10L10 20L0 10L10 0Z" fill="#dcdfda"/></g><circle cx="318.15000000000003" cy="388.85" r="24.04" fill="#cbd6d9"/><g transform="translate(364.81,364.81) scale(2.404) rotate(0)"><path d="M19.9981 0.00193429L3.72652 -7.68637e-07L8.4784 4.75382L0 13.2345L6.76585 20L15.2462 11.5208L20 16.2746L19.9981 0.00193429Z" fill="#dcdfda"/></g><g transform="translate(435.51,364.81) scale(2.404) rotate(0)"><path fill-rule="evenodd" clip-rule="evenodd" d="M10 20C15.5228 20 20 15.5228 20 10C20 4.47715 15.5228 0 10 0C4.47715 0 0 4.47715 0 10C0 15.5228 4.47715 20 10 20ZM10 17C13.866 17 17 13.866 17 10C17 6.13401 13.866 3 10 3C6.13401 3 3 6.13401 3 10C3 13.866 6.13401 17 10 17Z" fill="#cbd6d9"/></g><g transform="translate(506.21,364.81) scale(2.404) rotate(0)"><path d="M13 0H20V7L7 20H0V13L13 0Z" fill="#cbd6d9"/></g><path d="M 576.91 412.89 A 48.08 48.08 0 0 1  624.99 364.81 L 576.91 412.89 A 48.08 48.08 0 0 0 624.99 364.81" fill="#dcdfda"/><g transform="translate(647.61,364.81) scale(2.404) rotate(0)"><path d="M10 5L5 0L0 5L5 10L0 15L5 20L10 15L15 20L20 15L15 10L20 5L15 0L10 5Z" fill="#cbd6d9"/></g><rect x="718.312" y="364.812" width="48.076" height="48.076" fill="#eff5f0"/><g transform="translate(718.31,364.81) scale(1.202) rotate(0)"><path d="M19.9981 0.00193429L3.72652 -7.68637e-07L8.4784 4.75382L0 13.2345L6.76585 20L15.2462 11.5208L20 16.2746L19.9981 0.00193429Z" fill="#cbd6d9"/></g><g transform="translate(742.35,364.81) scale(1.202) rotate(0)"><path d="M19.9981 0.00193429L3.72652 -7.68637e-07L8.4784 4.75382L0 13.2345L6.76585 20L15.2462 11.5208L20 16.2746L19.9981 0.00193429Z" fill="#cbd6d9"/></g><circle cx="730.3299999999999" cy="400.87" r="12.02" fill="#cbd6d9"/><g transform="translate(742.35,388.85) scale(1.202) rotate(0)"><path fill-rule="evenodd" clip-rule="evenodd" d="M10 20C15.5228 20 20 15.5228 20 10C20 4.47715 15.5228 0 10 0C4.47715 0 0 4.47715 0 10C0 15.5228 4.47715 20 10 20ZM10 17C13.866 17 17 13.866 17 10C17 6.13401 13.866 3 10 3C6.13401 3 3 6.13401 3 10C3 13.866 6.13401 17 10 17Z" fill="#cbd6d9"/></g><g transform="translate(789.01,364.81) scale(2.404) rotate(0)"><path d="M13 0H20V7L7 20H0V13L13 0Z" fill="#dcdfda"/></g><rect x="859.7120000000001" y="364.812" width="48.076" height="48.076" fill="#eff5f0"/><g transform="translate(859.71,364.81) scale(1.202) rotate(0)"><path d="M13 0H20V7L7 20H0V13L13 0Z" fill="#cbd6d9"/></g><g transform="translate(883.75,364.81) scale(1.202) rotate(0)"><path d="M10 5L5 0L0 5L5 10L0 15L5 20L10 15L15 20L20 15L15 10L20 5L15 0L10 5Z" fill="#cbd6d9"/></g><g transform="translate(859.71,388.85) scale(1.202) rotate(0)"><path d="M10 0L20 10L10 20L0 10L10 0Z" fill="#cbd6d9"/></g><circle cx="895.77" cy="400.87" r="12.02" fill="#dcdfda"/><g transform="translate(930.41,364.81) scale(2.404) rotate(0)"><path d="M13 0H20V7L7 20H0V13L13 0Z" fill="#cbd6d9"/></g><g transform="translate(1001.11,364.81) scale(2.404) rotate(0)"><path fill-rule="evenodd" clip-rule="evenodd" d="M10 20C15.5228 20 20 15.5228 20 10C20 4.47715 15.5228 0 10 0C4.47715 0 0 4.47715 0 10C0 15.5228 4.47715 20 10 20ZM10 17C13.866 17 17 13.866 17 10C17 6.13401 13.866 3 10 3C6.13401 3 3 6.13401 3 10C3 13.866 6.13401 17 10 17Z" fill="#cbd6d9"/></g><g transform="translate(7.92,432.12) scale(2.743) rotate(0)"><path d="M19.9981 0.00193429L3.72652 -7.68637e-07L8.4784 4.75382L0 13.2345L6.76585 20L15.2462 11.5208L20 16.2746L19.9981 0.00193429Z" fill="#cbd6d9"/></g><g transform="translate(78.62,432.12) scale(2.743) rotate(0)"><path d="M13 0H20V7L7 20H0V13L13 0Z" fill="#cbd6d9"/></g><rect x="149.3184" y="432.11840000000007" width="54.863200000000006" height="54.863200000000006" fill="#eff5f0"/><g transform="translate(149.32,432.12) scale(1.3715) rotate(0)"><path d="M10 5L5 0L0 5L5 10L0 15L5 20L10 15L15 20L20 15L15 10L20 5L15 0L10 5Z" fill="#dcdfda"/></g><g transform="translate(176.75,432.12) scale(1.3715) rotate(0)"><path fill-rule="evenodd" clip-rule="evenodd" d="M10 20C15.5228 20 20 15.5228 20 10C20 4.47715 15.5228 0 10 0C4.47715 0 0 4.47715 0 10C0 15.5228 4.47715 20 10 20ZM10 17C13.866 17 17 13.866 17 10C17 6.13401 13.866 3 10 3C6.13401 3 3 6.13401 3 10C3 13.866 6.13401 17 10 17Z" fill="#dcdfda"/></g><g transform="translate(149.32,459.55) scale(1.3715) rotate(0)"><path fill-rule="evenodd" clip-rule="evenodd" d="M10 20C15.5228 20 20 15.5228 20 10C20 4.47715 15.5228 0 10 0C4.47715 0 0 4.47715 0 10C0 15.5228 4.47715 20 10 20ZM10 17C13.866 17 17 13.866 17 10C17 6.13401 13.866 3 10 3C6.13401 3 3 6.13401 3 10C3 13.866 6.13401 17 10 17Z" fill="#cbd6d9"/></g><g transform="translate(176.75,459.55) scale(1.3715) rotate(0)"><path d="M10 0L20 10L10 20L0 10L10 0Z" fill="#dcdfda"/></g><circle cx="247.45000000000002" cy="459.55" r="27.43" fill="#cbd6d9"/><path d="M 290.72 432.12 A 54.86 54.86 0 0 1  345.58000000000004 486.98 L 290.72 432.12 A 54.86 54.86 0 0 0 345.58000000000004 486.98" fill="#dcdfda"/><g transform="translate(361.42,432.12) scale(2.743) rotate(0)"><path d="M10 5L5 0L0 5L5 10L0 15L5 20L10 15L15 20L20 15L15 10L20 5L15 0L10 5Z" fill="#cbd6d9"/></g><g transform="translate(432.12,432.12) scale(2.743) rotate(0)"><path d="M13 0H20V7L7 20H0V13L13 0Z" fill="#cbd6d9"/></g><path d="M 502.82 486.98 A 54.86 54.86 0 0 1  557.68 432.12 L 502.82 486.98 A 54.86 54.86 0 0 0 557.68 432.12" fill="#dcdfda"/><rect x="573.5184" y="432.11840000000007" width="54.863200000000006" height="54.863200000000006" fill="#eff5f0"/><path d="M 573.52 459.55 A 27.43 27.43 0 0 1  600.9499999999999 432.12 L 573.52 459.55 A 27.43 27.43 0 0 0 600.9499999999999 432.12" fill="#dcdfda"/><g transform="translate(600.95,432.12) scale(1.3715) rotate(0)"><path d="M10 5L5 0L0 5L5 10L0 15L5 20L10 15L15 20L20 15L15 10L20 5L15 0L10 5Z" fill="#cbd6d9"/></g><g transform="translate(573.52,459.55) scale(1.3715) rotate(0)"><path d="M19.9981 0.00193429L3.72652 -7.68637e-07L8.4784 4.75382L0 13.2345L6.76585 20L15.2462 11.5208L20 16.2746L19.9981 0.00193429Z" fill="#cbd6d9"/></g><g transform="translate(600.95,459.55) scale(1.3715) rotate(0)"><path d="M10 0L20 10L10 20L0 10L10 0Z" fill="#dcdfda"/></g><g transform="translate(644.22,432.12) scale(2.743) rotate(0)"><path d="M10 5L5 0L0 5L5 10L0 15L5 20L10 15L15 20L20 15L15 10L20 5L15 0L10 5Z" fill="#dcdfda"/></g><g transform="translate(714.92,432.12) scale(2.743) rotate(0)"><path d="M13 0H20V7L7 20H0V13L13 0Z" fill="#cbd6d9"/></g><g transform="translate(785.62,432.12) scale(2.743) rotate(0)"><path fill-rule="evenodd" clip-rule="evenodd" d="M10 20C15.5228 20 20 15.5228 20 10C20 4.47715 15.5228 0 10 0C4.47715 0 0 4.47715 0 10C0 15.5228 4.47715 20 10 20ZM10 17C13.866 17 17 13.866 17 10C17 6.13401 13.866 3 10 3C6.13401 3 3 6.13401 3 10C3 13.866 6.13401 17 10 17Z" fill="#dcdfda"/></g><g transform="translate(856.32,432.12) scale(2.743) rotate(0)"><path d="M19.9981 0.00193429L3.72652 -7.68637e-07L8.4784 4.75382L0 13.2345L6.76585 20L15.2462 11.5208L20 16.2746L19.9981 0.00193429Z" fill="#cbd6d9"/></g><g transform="translate(927.02,432.12) scale(2.743) rotate(0)"><path d="M19.9981 0.00193429L3.72652 -7.68637e-07L8.4784 4.75382L0 13.2345L6.76585 20L15.2462 11.5208L20 16.2746L19.9981 0.00193429Z" fill="#dcdfda"/></g><g transform="translate(997.72,432.12) scale(2.743) rotate(0)"><path fill-rule="evenodd" clip-rule="evenodd" d="M10 20C15.5228 20 20 15.5228 20 10C20 4.47715 15.5228 0 10 0C4.47715 0 0 4.47715 0 10C0 15.5228 4.47715 20 10 20ZM10 17C13.866 17 17 13.866 17 10C17 6.13401 13.866 3 10 3C6.13401 3 3 6.13401 3 10C3 13.866 6.13401 17 10 17Z" fill="#dcdfda"/></g><g transform="translate(4.52,499.42) scale(3.0825) rotate(0)"><path d="M10 0L20 10L10 20L0 10L10 0Z" fill="#cbd6d9"/></g><rect x="75.2248" y="499.42480000000006" width="61.6504" height="61.6504" fill="#eff5f0"/><g transform="translate(75.22,499.42) scale(1.5414999999999999) rotate(0)"><path d="M13 0H20V7L7 20H0V13L13 0Z" fill="#dcdfda"/></g><circle cx="121.465" cy="514.835" r="15.415" fill="#cbd6d9"/><g transform="translate(75.22,530.25) scale(1.5414999999999999) rotate(0)"><path d="M10 5L5 0L0 5L5 10L0 15L5 20L10 15L15 20L20 15L15 10L20 5L15 0L10 5Z" fill="#cbd6d9"/></g><g transform="translate(106.05,530.25) scale(1.5414999999999999) rotate(0)"><path d="M13 0H20V7L7 20H0V13L13 0Z" fill="#dcdfda"/></g><g transform="translate(145.92,499.42) scale(3.0825) rotate(0)"><path d="M10 5L5 0L0 5L5 10L0 15L5 20L10 15L15 20L20 15L15 10L20 5L15 0L10 5Z" fill="#dcdfda"/></g><g transform="translate(216.62,499.42) scale(3.0825) rotate(0)"><path d="M19.9981 0.00193429L3.72652 -7.68637e-07L8.4784 4.75382L0 13.2345L6.76585 20L15.2462 11.5208L20 16.2746L19.9981 0.00193429Z" fill="#cbd6d9"/></g><rect x="287.32480000000004" y="499.42480000000006" width="61.6504" height="61.6504" fill="#eff5f0"/><circle cx="302.735" cy="514.835" r="15.415" fill="#dcdfda"/><g transform="translate(318.15,499.42) scale(1.5414999999999999) rotate(0)"><path d="M10 5L5 0L0 5L5 10L0 15L5 20L10 15L15 20L20 15L15 10L20 5L15 0L10 5Z" fill="#cbd6d9"/></g><g transform="translate(287.32,530.25) scale(1.5414999999999999) rotate(0)"><path d="M10 5L5 0L0 5L5 10L0 15L5 20L10 15L15 20L20 15L15 10L20 5L15 0L10 5Z" fill="#cbd6d9"/></g><circle cx="333.565" cy="545.665" r="15.415" fill="#cbd6d9"/><rect x="358.0248" y="499.42480000000006" width="61.6504" height="61.6504" fill="#eff5f0"/><g transform="translate(358.02,499.42) scale(1.5414999999999999) rotate(0)"><path fill-rule="evenodd" clip-rule="evenodd" d="M10 20C15.5228 20 20 15.5228 20 10C20 4.47715 15.5228 0 10 0C4.47715 0 0 4.47715 0 10C0 15.5228 4.47715 20 10 20ZM10 17C13.866 17 17 13.866 17 10C17 6.13401 13.866 3 10 3C6.13401 3 3 6.13401 3 10C3 13.866 6.13401 17 10 17Z" fill="#dcdfda"/></g><g transform="translate(388.85,499.42) scale(1.5414999999999999) rotate(0)"><path fill-rule="evenodd" clip-rule="evenodd" d="M10 20C15.5228 20 20 15.5228 20 10C20 4.47715 15.5228 0 10 0C4.47715 0 0 4.47715 0 10C0 15.5228 4.47715 20 10 20ZM10 17C13.866 17 17 13.866 17 10C17 6.13401 13.866 3 10 3C6.13401 3 3 6.13401 3 10C3 13.866 6.13401 17 10 17Z" fill="#dcdfda"/></g><path d="M 358.02 561.08 A 30.83 30.83 0 0 1  388.84999999999997 530.25 L 358.02 561.08 A 30.83 30.83 0 0 0 388.84999999999997 530.25" fill="#cbd6d9"/><g transform="translate(388.85,530.25) scale(1.5414999999999999) rotate(0)"><path fill-rule="evenodd" clip-rule="evenodd" d="M10 20C15.5228 20 20 15.5228 20 10C20 4.47715 15.5228 0 10 0C4.47715 0 0 4.47715 0 10C0 15.5228 4.47715 20 10 20ZM10 17C13.866 17 17 13.866 17 10C17 6.13401 13.866 3 10 3C6.13401 3 3 6.13401 3 10C3 13.866 6.13401 17 10 17Z" fill="#cbd6d9"/></g><rect x="428.7248000000001" y="499.42480000000006" width="61.6504" height="61.6504" fill="#eff5f0"/><path d="M 428.72 499.42 A 30.83 30.83 0 0 1  459.55 530.25 L 428.72 499.42 A 30.83 30.83 0 0 0 459.55 530.25" fill="#dcdfda"/><g transform="translate(459.55,499.42) scale(1.5414999999999999) rotate(0)"><path d="M10 5L5 0L0 5L5 10L0 15L5 20L10 15L15 20L20 15L15 10L20 5L15 0L10 5Z" fill="#cbd6d9"/></g><g transform="translate(428.72,530.25) scale(1.5414999999999999) rotate(0)"><path d="M10 5L5 0L0 5L5 10L0 15L5 20L10 15L15 20L20 15L15 10L20 5L15 0L10 5Z" fill="#cbd6d9"/></g><g transform="translate(459.55,530.25) scale(1.5414999999999999) rotate(0)"><path d="M13 0H20V7L7 20H0V13L13 0Z" fill="#dcdfda"/></g><circle cx="530.245" cy="530.245" r="30.825" fill="#dcdfda"/><g transform="translate(570.12,499.42) scale(3.0825) rotate(0)"><path d="M10 0L20 10L10 20L0 10L10 0Z" fill="#cbd6d9"/></g><path d="M 640.82 561.07 A 61.65 61.65 0 0 1  702.47 499.42 L 640.82 561.07 A 61.65 61.65 0 0 0 702.47 499.42" fill="#dcdfda"/><path d="M 711.52 561.07 A 61.65 61.65 0 0 1  773.17 499.42 L 711.52 561.07 A 61.65 61.65 0 0 0 773.17 499.42" fill="#dcdfda"/><circle cx="813.0450000000001" cy="530.245" r="30.825" fill="#cbd6d9"/><rect x="852.9248000000001" y="499.42480000000006" width="61.6504" height="61.6504" fill="#eff5f0"/><path d="M 852.92 499.42 A 30.83 30.83 0 0 1  883.75 530.25 L 852.92 499.42 A 30.83 30.83 0 0 0 883.75 530.25" fill="#dcdfda"/><g transform="translate(883.75,499.42) scale(1.5414999999999999) rotate(0)"><path d="M13 0H20V7L7 20H0V13L13 0Z" fill="#dcdfda"/></g><g transform="translate(852.92,530.25) scale(1.5414999999999999) rotate(0)"><path d="M13 0H20V7L7 20H0V13L13 0Z" fill="#cbd6d9"/></g><g transform="translate(883.75,530.25) scale(1.5414999999999999) rotate(0)"><path d="M19.9981 0.00193429L3.72652 -7.68637e-07L8.4784 4.75382L0 13.2345L6.76585 20L15.2462 11.5208L20 16.2746L19.9981 0.00193429Z" fill="#dcdfda"/></g><g transform="translate(923.62,499.42) scale(3.0825) rotate(0)"><path d="M10 0L20 10L10 20L0 10L10 0Z" fill="#dcdfda"/></g><circle cx="1025.145" cy="530.245" r="30.825" fill="#dcdfda"/><rect x="1.1312000000000013" y="566.7312000000001" width="68.4376" height="68.4376" fill="#eff5f0"/><g transform="translate(1.13,566.73) scale(1.7109999999999999) rotate(0)"><path d="M10 0L20 10L10 20L0 10L10 0Z" fill="#cbd6d9"/></g><circle cx="52.46" cy="583.84" r="17.11" fill="#cbd6d9"/><g transform="translate(1.13,600.95) scale(1.7109999999999999) rotate(0)"><path d="M19.9981 0.00193429L3.72652 -7.68637e-07L8.4784 4.75382L0 13.2345L6.76585 20L15.2462 11.5208L20 16.2746L19.9981 0.00193429Z" fill="#cbd6d9"/></g><g transform="translate(35.35,600.95) scale(1.7109999999999999) rotate(0)"><path d="M19.9981 0.00193429L3.72652 -7.68637e-07L8.4784 4.75382L0 13.2345L6.76585 20L15.2462 11.5208L20 16.2746L19.9981 0.00193429Z" fill="#dcdfda"/></g><g transform="translate(71.83,566.73) scale(3.4219999999999997) rotate(0)"><path d="M19.9981 0.00193429L3.72652 -7.68637e-07L8.4784 4.75382L0 13.2345L6.76585 20L15.2462 11.5208L20 16.2746L19.9981 0.00193429Z" fill="#cbd6d9"/></g><g transform="translate(142.53,566.73) scale(3.4219999999999997) rotate(0)"><path fill-rule="evenodd" clip-rule="evenodd" d="M10 20C15.5228 20 20 15.5228 20 10C20 4.47715 15.5228 0 10 0C4.47715 0 0 4.47715 0 10C0 15.5228 4.47715 20 10 20ZM10 17C13.866 17 17 13.866 17 10C17 6.13401 13.866 3 10 3C6.13401 3 3 6.13401 3 10C3 13.866 6.13401 17 10 17Z" fill="#cbd6d9"/></g><g transform="translate(213.23,566.73) scale(3.4219999999999997) rotate(0)"><path d="M19.9981 0.00193429L3.72652 -7.68637e-07L8.4784 4.75382L0 13.2345L6.76585 20L15.2462 11.5208L20 16.2746L19.9981 0.00193429Z" fill="#dcdfda"/></g><rect x="283.9312" y="566.7312000000001" width="68.4376" height="68.4376" fill="#eff5f0"/><g transform="translate(283.93,566.73) scale(1.7109999999999999) rotate(0)"><path d="M19.9981 0.00193429L3.72652 -7.68637e-07L8.4784 4.75382L0 13.2345L6.76585 20L15.2462 11.5208L20 16.2746L19.9981 0.00193429Z" fill="#cbd6d9"/></g><circle cx="335.26" cy="583.84" r="17.11" fill="#dcdfda"/><g transform="translate(283.93,600.95) scale(1.7109999999999999) rotate(0)"><path d="M13 0H20V7L7 20H0V13L13 0Z" fill="#cbd6d9"/></g><g transform="translate(318.15,600.95) scale(1.7109999999999999) rotate(0)"><path d="M10 0L20 10L10 20L0 10L10 0Z" fill="#cbd6d9"/></g><rect x="354.6312" y="566.7312000000001" width="68.4376" height="68.4376" fill="#eff5f0"/><g transform="translate(354.63,566.73) scale(1.7109999999999999) rotate(0)"><path d="M10 5L5 0L0 5L5 10L0 15L5 20L10 15L15 20L20 15L15 10L20 5L15 0L10 5Z" fill="#dcdfda"/></g><g transform="translate(388.85,566.73) scale(1.7109999999999999) rotate(0)"><path fill-rule="evenodd" clip-rule="evenodd" d="M10 20C15.5228 20 20 15.5228 20 10C20 4.47715 15.5228 0 10 0C4.47715 0 0 4.47715 0 10C0 15.5228 4.47715 20 10 20ZM10 17C13.866 17 17 13.866 17 10C17 6.13401 13.866 3 10 3C6.13401 3 3 6.13401 3 10C3 13.866 6.13401 17 10 17Z" fill="#dcdfda"/></g><g transform="translate(354.63,600.95) scale(1.7109999999999999) rotate(0)"><path fill-rule="evenodd" clip-rule="evenodd" d="M10 20C15.5228 20 20 15.5228 20 10C20 4.47715 15.5228 0 10 0C4.47715 0 0 4.47715 0 10C0 15.5228 4.47715 20 10 20ZM10 17C13.866 17 17 13.866 17 10C17 6.13401 13.866 3 10 3C6.13401 3 3 6.13401 3 10C3 13.866 6.13401 17 10 17Z" fill="#cbd6d9"/></g><g transform="translate(388.85,600.95) scale(1.7109999999999999) rotate(0)"><path d="M13 0H20V7L7 20H0V13L13 0Z" fill="#dcdfda"/></g><g transform="translate(425.33,566.73) scale(3.4219999999999997) rotate(0)"><path d="M10 0L20 10L10 20L0 10L10 0Z" fill="#cbd6d9"/></g><g transform="translate(496.03,566.73) scale(3.4219999999999997) rotate(0)"><path fill-rule="evenodd" clip-rule="evenodd" d="M10 20C15.5228 20 20 15.5228 20 10C20 4.47715 15.5228 0 10 0C4.47715 0 0 4.47715 0 10C0 15.5228 4.47715 20 10 20ZM10 17C13.866 17 17 13.866 17 10C17 6.13401 13.866 3 10 3C6.13401 3 3 6.13401 3 10C3 13.866 6.13401 17 10 17Z" fill="#dcdfda"/></g><rect x="566.7312000000001" y="566.7312000000001" width="68.4376" height="68.4376" fill="#eff5f0"/><g transform="translate(566.73,566.73) scale(1.7109999999999999) rotate(0)"><path d="M10 0L20 10L10 20L0 10L10 0Z" fill="#cbd6d9"/></g><g transform="translate(600.95,566.73) scale(1.7109999999999999) rotate(0)"><path d="M10 0L20 10L10 20L0 10L10 0Z" fill="#dcdfda"/></g><path d="M 566.73 635.1700000000001 A 34.22 34.22 0 0 1  600.95 600.95 L 566.73 635.1700000000001 A 34.22 34.22 0 0 0 600.95 600.95" fill="#dcdfda"/><path d="M 600.95 635.1700000000001 A 34.22 34.22 0 0 1  635.1700000000001 600.95 L 600.95 635.1700000000001 A 34.22 34.22 0 0 0 635.1700000000001 600.95" fill="#cbd6d9"/><path d="M 637.43 635.1700000000001 A 68.44 68.44 0 0 1  705.8699999999999 566.73 L 637.43 635.1700000000001 A 68.44 68.44 0 0 0 705.8699999999999 566.73" fill="#dcdfda"/><g transform="translate(708.13,566.73) scale(3.4219999999999997) rotate(0)"><path d="M19.9981 0.00193429L3.72652 -7.68637e-07L8.4784 4.75382L0 13.2345L6.76585 20L15.2462 11.5208L20 16.2746L19.9981 0.00193429Z" fill="#cbd6d9"/></g><circle cx="813.0500000000001" cy="600.95" r="34.22" fill="#cbd6d9"/><rect x="849.5312000000001" y="566.7312000000001" width="68.4376" height="68.4376" fill="#eff5f0"/><g transform="translate(849.53,566.73) scale(1.7109999999999999) rotate(0)"><path d="M13 0H20V7L7 20H0V13L13 0Z" fill="#dcdfda"/></g><path d="M 883.75 566.73 A 34.22 34.22 0 0 1  917.97 600.95 L 883.75 566.73 A 34.22 34.22 0 0 0 917.97 600.95" fill="#dcdfda"/><g transform="translate(849.53,600.95) scale(1.7109999999999999) rotate(0)"><path d="M19.9981 0.00193429L3.72652 -7.68637e-07L8.4784 4.75382L0 13.2345L6.76585 20L15.2462 11.5208L20 16.2746L19.9981 0.00193429Z" fill="#dcdfda"/></g><circle cx="900.86" cy="618.0600000000001" r="17.11" fill="#cbd6d9"/><rect x="920.2312000000001" y="566.7312000000001" width="68.4376" height="68.4376" fill="#eff5f0"/><g transform="translate(920.23,566.73) scale(1.7109999999999999) rotate(0)"><path d="M19.9981 0.00193429L3.72652 -7.68637e-07L8.4784 4.75382L0 13.2345L6.76585 20L15.2462 11.5208L20 16.2746L19.9981 0.00193429Z" fill="#cbd6d9"/></g><circle cx="971.5600000000001" cy="583.84" r="17.11" fill="#cbd6d9"/><g transform="translate(920.23,600.95) scale(1.7109999999999999) rotate(0)"><path d="M10 0L20 10L10 20L0 10L10 0Z" fill="#cbd6d9"/></g><g transform="translate(954.45,600.95) scale(1.7109999999999999) rotate(0)"><path fill-rule="evenodd" clip-rule="evenodd" d="M10 20C15.5228 20 20 15.5228 20 10C20 4.47715 15.5228 0 10 0C4.47715 0 0 4.47715 0 10C0 15.5228 4.47715 20 10 20ZM10 17C13.866 17 17 13.866 17 10C17 6.13401 13.866 3 10 3C6.13401 3 3 6.13401 3 10C3 13.866 6.13401 17 10 17Z" fill="#cbd6d9"/></g><path d="M 990.93 635.1700000000001 A 68.44 68.44 0 0 1  1059.37 566.73 L 990.93 635.1700000000001 A 68.44 68.44 0 0 0 1059.37 566.73" fill="#dcdfda"/><rect x="0" y="636.3000000000001" width="70.7" height="70.7" fill="#eff5f0"/><g transform="translate(0,636.3) scale(1.7675) rotate(0)"><path d="M13 0H20V7L7 20H0V13L13 0Z" fill="#dcdfda"/></g><g transform="translate(35.35,636.3) scale(1.7675) rotate(0)"><path d="M10 5L5 0L0 5L5 10L0 15L5 20L10 15L15 20L20 15L15 10L20 5L15 0L10 5Z" fill="#dcdfda"/></g><g transform="translate(0,671.65) scale(1.7675) rotate(0)"><path d="M10 0L20 10L10 20L0 10L10 0Z" fill="#dcdfda"/></g><g transform="translate(35.35,671.65) scale(1.7675) rotate(0)"><path fill-rule="evenodd" clip-rule="evenodd" d="M10 20C15.5228 20 20 15.5228 20 10C20 4.47715 15.5228 0 10 0C4.47715 0 0 4.47715 0 10C0 15.5228 4.47715 20 10 20ZM10 17C13.866 17 17 13.866 17 10C17 6.13401 13.866 3 10 3C6.13401 3 3 6.13401 3 10C3 13.866 6.13401 17 10 17Z" fill="#cbd6d9"/></g><g transform="translate(70.7,636.3) scale(3.535) rotate(0)"><path d="M10 5L5 0L0 5L5 10L0 15L5 20L10 15L15 20L20 15L15 10L20 5L15 0L10 5Z" fill="#dcdfda"/></g><circle cx="176.75" cy="671.65" r="35.35" fill="#dcdfda"/><rect x="212.10000000000002" y="636.3000000000001" width="70.7" height="70.7" fill="#eff5f0"/><g transform="translate(212.1,636.3) scale(1.7675) rotate(0)"><path d="M13 0H20V7L7 20H0V13L13 0Z" fill="#dcdfda"/></g><g transform="translate(247.45,636.3) scale(1.7675) rotate(0)"><path d="M10 5L5 0L0 5L5 10L0 15L5 20L10 15L15 20L20 15L15 10L20 5L15 0L10 5Z" fill="#dcdfda"/></g><g transform="translate(212.1,671.65) scale(1.7675) rotate(0)"><path d="M13 0H20V7L7 20H0V13L13 0Z" fill="#cbd6d9"/></g><g transform="translate(247.45,671.65) scale(1.7675) rotate(0)"><path fill-rule="evenodd" clip-rule="evenodd" d="M10 20C15.5228 20 20 15.5228 20 10C20 4.47715 15.5228 0 10 0C4.47715 0 0 4.47715 0 10C0 15.5228 4.47715 20 10 20ZM10 17C13.866 17 17 13.866 17 10C17 6.13401 13.866 3 10 3C6.13401 3 3 6.13401 3 10C3 13.866 6.13401 17 10 17Z" fill="#cbd6d9"/></g><g transform="translate(282.8,636.3) scale(3.535) rotate(0)"><path d="M13 0H20V7L7 20H0V13L13 0Z" fill="#dcdfda"/></g><circle cx="388.85" cy="671.65" r="35.35" fill="#cbd6d9"/><g transform="translate(424.2,636.3) scale(3.535) rotate(0)"><path d="M10 5L5 0L0 5L5 10L0 15L5 20L10 15L15 20L20 15L15 10L20 5L15 0L10 5Z" fill="#cbd6d9"/></g><rect x="494.90000000000003" y="636.3000000000001" width="70.7" height="70.7" fill="#eff5f0"/><g transform="translate(494.9,636.3) scale(1.7675) rotate(0)"><path d="M10 0L20 10L10 20L0 10L10 0Z" fill="#cbd6d9"/></g><g transform="translate(530.25,636.3) scale(1.7675) rotate(0)"><path d="M13 0H20V7L7 20H0V13L13 0Z" fill="#cbd6d9"/></g><g transform="translate(494.9,671.65) scale(1.7675) rotate(0)"><path fill-rule="evenodd" clip-rule="evenodd" d="M10 20C15.5228 20 20 15.5228 20 10C20 4.47715 15.5228 0 10 0C4.47715 0 0 4.47715 0 10C0 15.5228 4.47715 20 10 20ZM10 17C13.866 17 17 13.866 17 10C17 6.13401 13.866 3 10 3C6.13401 3 3 6.13401 3 10C3 13.866 6.13401 17 10 17Z" fill="#dcdfda"/></g><g transform="translate(530.25,671.65) scale(1.7675) rotate(0)"><path d="M13 0H20V7L7 20H0V13L13 0Z" fill="#cbd6d9"/></g><rect x="565.6" y="636.3000000000001" width="70.7" height="70.7" fill="#eff5f0"/><g transform="translate(565.6,636.3) scale(1.7675) rotate(0)"><path fill-rule="evenodd" clip-rule="evenodd" d="M10 20C15.5228 20 20 15.5228 20 10C20 4.47715 15.5228 0 10 0C4.47715 0 0 4.47715 0 10C0 15.5228 4.47715 20 10 20ZM10 17C13.866 17 17 13.866 17 10C17 6.13401 13.866 3 10 3C6.13401 3 3 6.13401 3 10C3 13.866 6.13401 17 10 17Z" fill="#dcdfda"/></g><g transform="translate(600.95,636.3) scale(1.7675) rotate(0)"><path d="M19.9981 0.00193429L3.72652 -7.68637e-07L8.4784 4.75382L0 13.2345L6.76585 20L15.2462 11.5208L20 16.2746L19.9981 0.00193429Z" fill="#cbd6d9"/></g><path d="M 565.6 671.65 A 35.35 35.35 0 0 1  600.95 707 L 565.6 671.65 A 35.35 35.35 0 0 0 600.95 707" fill="#dcdfda"/><g transform="translate(600.95,671.65) scale(1.7675) rotate(0)"><path d="M10 0L20 10L10 20L0 10L10 0Z" fill="#dcdfda"/></g><path d="M 636.3 707 A 70.7 70.7 0 0 1  707 636.3 L 636.3 707 A 70.7 70.7 0 0 0 707 636.3" fill="#cbd6d9"/><g transform="translate(707,636.3) scale(3.535) rotate(0)"><path fill-rule="evenodd" clip-rule="evenodd" d="M10 20C15.5228 20 20 15.5228 20 10C20 4.47715 15.5228 0 10 0C4.47715 0 0 4.47715 0 10C0 15.5228 4.47715 20 10 20ZM10 17C13.866 17 17 13.866 17 10C17 6.13401 13.866 3 10 3C6.13401 3 3 6.13401 3 10C3 13.866 6.13401 17 10 17Z" fill="#dcdfda"/></g><rect x="777.7" y="636.3000000000001" width="70.7" height="70.7" fill="#eff5f0"/><g transform="translate(777.7,636.3) scale(1.7675) rotate(0)"><path d="M10 0L20 10L10 20L0 10L10 0Z" fill="#dcdfda"/></g><path d="M 813.05 636.3 A 35.35 35.35 0 0 1  848.4 671.65 L 813.05 636.3 A 35.35 35.35 0 0 0 848.4 671.65" fill="#cbd6d9"/><circle cx="795.375" cy="689.3249999999999" r="17.675" fill="#dcdfda"/><path d="M 813.05 707 A 35.35 35.35 0 0 1  848.4 671.65 L 813.05 707 A 35.35 35.35 0 0 0 848.4 671.65" fill="#dcdfda"/><g transform="translate(848.4,636.3) scale(3.535) rotate(0)"><path d="M10 0L20 10L10 20L0 10L10 0Z" fill="#cbd6d9"/></g><g transform="translate(919.1,636.3) scale(3.535) rotate(0)"><path fill-rule="evenodd" clip-rule="evenodd" d="M10 20C15.5228 20 20 15.5228 20 10C20 4.47715 15.5228 0 10 0C4.47715 0 0 4.47715 0 10C0 15.5228 4.47715 20 10 20ZM10 17C13.866 17 17 13.866 17 10C17 6.13401 13.866 3 10 3C6.13401 3 3 6.13401 3 10C3 13.866 6.13401 17 10 17Z" fill="#cbd6d9"/></g><g transform="translate(989.8,636.3) scale(3.535) rotate(0)"><path d="M10 5L5 0L0 5L5 10L0 15L5 20L10 15L15 20L20 15L15 10L20 5L15 0L10 5Z" fill="#dcdfda"/></g></g></svg>